P3
5 5
255
0 0 0 200 200 200 30 30 30 20 20 20 9 32 1
200 200 200 0 0 0 30 30 30 50 50 2 7 89 3
0 0 0 20 20 200 30 30 30 40 20 1 0 55 200
200 200 200 0 0 0 30 30 30 50 50 2 1 46 200
0 0 0 20 20 200 30 30 30 40 20 1 150 110 20
