P3
4 4
255
255 255 255  255 255 255  255 255 255  255 255 255
255 255 255  223  64  0    0  254  32  255 255 255
255 255 255  159 192  0    0  128  96  255 255 255
255 255 255  255 255 255  255 255 255  255 255 255
