P3
4 4
255
255 255 255  255 255 255  255 255 255  255 255 255
255 255 255  255  63  0    0  255  0   255 255 255
255 255 255  127 191  0    0  128 128  255 255 255
255 255 255  255 255 255  255 255 255  255 255 255 
